<mxfile host="app.diagrams.net" agent="Mozilla/5.0 (Windows NT 10.0; Win64; x64) AppleWebKit/537.36 (KHTML, like Gecko) Chrome/131.0.0.0 Safari/537.36 OPR/116.0.0.0" version="26.0.16">
  <diagram name="Página-1" id="8-urRTg2ksUK8pmYgMZj">
    <mxGraphModel dx="2159" dy="743" grid="1" gridSize="10" guides="1" tooltips="1" connect="1" arrows="1" fold="1" page="1" pageScale="1" pageWidth="827" pageHeight="1169" math="0" shadow="0">
      <root>
        <mxCell id="0" />
        <mxCell id="1" parent="0" />
        <mxCell id="3HYRBlNdvJFizkfq-V-y-1" value="INÍCIO" style="ellipse;whiteSpace=wrap;html=1;" parent="1" vertex="1">
          <mxGeometry x="10" y="20" width="160" height="90" as="geometry" />
        </mxCell>
        <mxCell id="3HYRBlNdvJFizkfq-V-y-2" value="INPUTS" style="swimlane;fontStyle=0;childLayout=stackLayout;horizontal=1;startSize=30;horizontalStack=0;resizeParent=1;resizeParentMax=0;resizeLast=0;collapsible=1;marginBottom=0;whiteSpace=wrap;html=1;" parent="1" vertex="1">
          <mxGeometry x="420" y="8" width="180" height="300" as="geometry">
            <mxRectangle x="290" y="20" width="80" height="30" as="alternateBounds" />
          </mxGeometry>
        </mxCell>
        <mxCell id="3HYRBlNdvJFizkfq-V-y-3" value="DESCRIÇÃO(obrigatório)" style="text;strokeColor=none;fillColor=none;align=left;verticalAlign=middle;spacingLeft=4;spacingRight=4;overflow=hidden;points=[[0,0.5],[1,0.5]];portConstraint=eastwest;rotatable=0;whiteSpace=wrap;html=1;" parent="3HYRBlNdvJFizkfq-V-y-2" vertex="1">
          <mxGeometry y="30" width="180" height="30" as="geometry" />
        </mxCell>
        <mxCell id="3HYRBlNdvJFizkfq-V-y-4" value="TIPO(obrigatório)" style="text;strokeColor=none;fillColor=none;align=left;verticalAlign=middle;spacingLeft=4;spacingRight=4;overflow=hidden;points=[[0,0.5],[1,0.5]];portConstraint=eastwest;rotatable=0;whiteSpace=wrap;html=1;" parent="3HYRBlNdvJFizkfq-V-y-2" vertex="1">
          <mxGeometry y="60" width="180" height="30" as="geometry" />
        </mxCell>
        <mxCell id="xr16jAEXJwI2Qnev0PgR-2" value="QUANTIDADE(OBRIGATÓRIO)" style="text;strokeColor=none;fillColor=none;align=left;verticalAlign=middle;spacingLeft=4;spacingRight=4;overflow=hidden;points=[[0,0.5],[1,0.5]];portConstraint=eastwest;rotatable=0;whiteSpace=wrap;html=1;" parent="3HYRBlNdvJFizkfq-V-y-2" vertex="1">
          <mxGeometry y="90" width="180" height="30" as="geometry" />
        </mxCell>
        <mxCell id="3HYRBlNdvJFizkfq-V-y-5" value="MARCA(obrigatório)" style="text;strokeColor=none;fillColor=none;align=left;verticalAlign=middle;spacingLeft=4;spacingRight=4;overflow=hidden;points=[[0,0.5],[1,0.5]];portConstraint=eastwest;rotatable=0;whiteSpace=wrap;html=1;" parent="3HYRBlNdvJFizkfq-V-y-2" vertex="1">
          <mxGeometry y="120" width="180" height="30" as="geometry" />
        </mxCell>
        <mxCell id="3HYRBlNdvJFizkfq-V-y-9" value="OBSERVAÇÃO" style="text;strokeColor=none;fillColor=none;align=left;verticalAlign=middle;spacingLeft=4;spacingRight=4;overflow=hidden;points=[[0,0.5],[1,0.5]];portConstraint=eastwest;rotatable=0;whiteSpace=wrap;html=1;" parent="3HYRBlNdvJFizkfq-V-y-2" vertex="1">
          <mxGeometry y="150" width="180" height="30" as="geometry" />
        </mxCell>
        <mxCell id="3HYRBlNdvJFizkfq-V-y-24" value="&lt;div&gt;USUÁRIO QUE CADASTROU&lt;/div&gt;" style="text;strokeColor=none;fillColor=none;align=left;verticalAlign=middle;spacingLeft=4;spacingRight=4;overflow=hidden;points=[[0,0.5],[1,0.5]];portConstraint=eastwest;rotatable=0;whiteSpace=wrap;html=1;" parent="3HYRBlNdvJFizkfq-V-y-2" vertex="1">
          <mxGeometry y="180" width="180" height="30" as="geometry" />
        </mxCell>
        <mxCell id="3HYRBlNdvJFizkfq-V-y-23" value="DATA E HORA DO CADASTRO" style="text;strokeColor=none;fillColor=none;align=left;verticalAlign=middle;spacingLeft=4;spacingRight=4;overflow=hidden;points=[[0,0.5],[1,0.5]];portConstraint=eastwest;rotatable=0;whiteSpace=wrap;html=1;" parent="3HYRBlNdvJFizkfq-V-y-2" vertex="1">
          <mxGeometry y="210" width="180" height="30" as="geometry" />
        </mxCell>
        <mxCell id="A4JTVdD2mBBCTn9CY4UU-2" value="Foto do ativo(obrigatório)&lt;span style=&quot;color: rgba(0, 0, 0, 0); font-family: monospace; font-size: 0px; text-wrap-mode: nowrap;&quot;&gt;%3CmxGraphModel%3E%3Croot%3E%3CmxCell%20id%3D%220%22%2F%3E%3CmxCell%20id%3D%221%22%20parent%3D%220%22%2F%3E%3CmxCell%20id%3D%222%22%20value%3D%22%26lt%3Bdiv%26gt%3BUSU%C3%81RIO%20QUE%20CADASTROU%26lt%3B%2Fdiv%26gt%3B%22%20style%3D%22text%3BstrokeColor%3Dnone%3BfillColor%3Dnone%3Balign%3Dleft%3BverticalAlign%3Dmiddle%3BspacingLeft%3D4%3BspacingRight%3D4%3Boverflow%3Dhidden%3Bpoints%3D%5B%5B0%2C0.5%5D%2C%5B1%2C0.5%5D%5D%3BportConstraint%3Deastwest%3Brotatable%3D0%3BwhiteSpace%3Dwrap%3Bhtml%3D1%3B%22%20vertex%3D%221%22%20parent%3D%221%22%3E%3CmxGeometry%20x%3D%22420%22%20y%3D%22188%22%20width%3D%22180%22%20height%3D%2230%22%20as%3D%22geometry%22%2F%3E%3C%2FmxCell%3E%3C%2Froot%3E%3C%2FmxGraphModel%3E&lt;/span&gt;" style="text;strokeColor=none;fillColor=none;align=left;verticalAlign=middle;spacingLeft=4;spacingRight=4;overflow=hidden;points=[[0,0.5],[1,0.5]];portConstraint=eastwest;rotatable=0;whiteSpace=wrap;html=1;" parent="3HYRBlNdvJFizkfq-V-y-2" vertex="1">
          <mxGeometry y="240" width="180" height="30" as="geometry" />
        </mxCell>
        <mxCell id="A4JTVdD2mBBCTn9CY4UU-1" value="Quantidade minima(obrigatório)" style="text;strokeColor=none;fillColor=none;align=left;verticalAlign=middle;spacingLeft=4;spacingRight=4;overflow=hidden;points=[[0,0.5],[1,0.5]];portConstraint=eastwest;rotatable=0;whiteSpace=wrap;html=1;" parent="3HYRBlNdvJFizkfq-V-y-2" vertex="1">
          <mxGeometry y="270" width="180" height="30" as="geometry" />
        </mxCell>
        <mxCell id="3HYRBlNdvJFizkfq-V-y-6" value="" style="shape=flexArrow;endArrow=classic;html=1;rounded=0;exitX=0.998;exitY=0.519;exitDx=0;exitDy=0;exitPerimeter=0;" parent="1" source="3HYRBlNdvJFizkfq-V-y-1" target="3HYRBlNdvJFizkfq-V-y-7" edge="1">
          <mxGeometry width="50" height="50" relative="1" as="geometry">
            <mxPoint x="240" y="100" as="sourcePoint" />
            <mxPoint x="280" y="68" as="targetPoint" />
          </mxGeometry>
        </mxCell>
        <mxCell id="3HYRBlNdvJFizkfq-V-y-7" value="CADASTRAR ATIVO&lt;div&gt;(ABRIR MODAL)&lt;/div&gt;" style="rounded=0;whiteSpace=wrap;html=1;" parent="1" vertex="1">
          <mxGeometry x="220" y="38" width="120" height="60" as="geometry" />
        </mxCell>
        <mxCell id="3HYRBlNdvJFizkfq-V-y-8" value="" style="shape=flexArrow;endArrow=classic;html=1;rounded=0;exitX=1;exitY=0.5;exitDx=0;exitDy=0;entryX=-0.004;entryY=0.016;entryDx=0;entryDy=0;entryPerimeter=0;" parent="1" source="3HYRBlNdvJFizkfq-V-y-7" target="3HYRBlNdvJFizkfq-V-y-4" edge="1">
          <mxGeometry width="50" height="50" relative="1" as="geometry">
            <mxPoint x="370" y="90" as="sourcePoint" />
            <mxPoint x="420" y="68" as="targetPoint" />
          </mxGeometry>
        </mxCell>
        <mxCell id="3HYRBlNdvJFizkfq-V-y-10" value="" style="shape=flexArrow;endArrow=classic;html=1;rounded=0;exitX=0.995;exitY=0.073;exitDx=0;exitDy=0;exitPerimeter=0;entryX=-0.005;entryY=0.64;entryDx=0;entryDy=0;entryPerimeter=0;" parent="1" source="3HYRBlNdvJFizkfq-V-y-4" target="3HYRBlNdvJFizkfq-V-y-11" edge="1">
          <mxGeometry width="50" height="50" relative="1" as="geometry">
            <mxPoint x="590" y="90" as="sourcePoint" />
            <mxPoint x="660" y="70" as="targetPoint" />
          </mxGeometry>
        </mxCell>
        <mxCell id="3HYRBlNdvJFizkfq-V-y-11" value="VALIDAÇÃO DE CAMPOS NENHUM CAMPO OBRIGATÓRIO PODE ESTAR VAZIO" style="rounded=0;whiteSpace=wrap;html=1;" parent="1" vertex="1">
          <mxGeometry x="670" y="18" width="140" height="80" as="geometry" />
        </mxCell>
        <mxCell id="3HYRBlNdvJFizkfq-V-y-12" value="" style="shape=flexArrow;endArrow=classic;html=1;rounded=0;exitX=0.345;exitY=0.999;exitDx=0;exitDy=0;exitPerimeter=0;" parent="1" source="3HYRBlNdvJFizkfq-V-y-11" target="3HYRBlNdvJFizkfq-V-y-13" edge="1">
          <mxGeometry width="50" height="50" relative="1" as="geometry">
            <mxPoint x="715" y="100" as="sourcePoint" />
            <mxPoint x="720" y="200" as="targetPoint" />
          </mxGeometry>
        </mxCell>
        <mxCell id="3HYRBlNdvJFizkfq-V-y-13" value="VALIDAÇÃO" style="rhombus;whiteSpace=wrap;html=1;" parent="1" vertex="1">
          <mxGeometry x="680" y="350" width="80" height="90" as="geometry" />
        </mxCell>
        <mxCell id="3HYRBlNdvJFizkfq-V-y-14" value="" style="shape=flexArrow;endArrow=classic;html=1;rounded=0;exitX=0;exitY=0.5;exitDx=0;exitDy=0;entryX=1;entryY=0.5;entryDx=0;entryDy=0;" parent="1" source="3HYRBlNdvJFizkfq-V-y-13" edge="1">
          <mxGeometry width="50" height="50" relative="1" as="geometry">
            <mxPoint x="590" y="330" as="sourcePoint" />
            <mxPoint x="570" y="394.9999999999999" as="targetPoint" />
          </mxGeometry>
        </mxCell>
        <mxCell id="3HYRBlNdvJFizkfq-V-y-15" value="CADASTRAR ATIVO" style="rounded=0;whiteSpace=wrap;html=1;" parent="1" vertex="1">
          <mxGeometry x="70" y="640" width="120" height="60" as="geometry" />
        </mxCell>
        <mxCell id="3HYRBlNdvJFizkfq-V-y-16" value="SIM" style="text;strokeColor=none;align=center;fillColor=none;html=1;verticalAlign=middle;whiteSpace=wrap;rounded=0;" parent="1" vertex="1">
          <mxGeometry x="630" y="360" width="60" height="30" as="geometry" />
        </mxCell>
        <mxCell id="3HYRBlNdvJFizkfq-V-y-17" value="" style="shape=flexArrow;endArrow=classic;html=1;rounded=0;exitX=1;exitY=1;exitDx=0;exitDy=0;" parent="1" source="3HYRBlNdvJFizkfq-V-y-13" target="3HYRBlNdvJFizkfq-V-y-18" edge="1">
          <mxGeometry width="50" height="50" relative="1" as="geometry">
            <mxPoint x="730" y="490" as="sourcePoint" />
            <mxPoint x="720" y="500" as="targetPoint" />
          </mxGeometry>
        </mxCell>
        <mxCell id="3HYRBlNdvJFizkfq-V-y-18" value="ALERTA INFORMADO PARA PREENCHER TODOS OS CAMPOS" style="rounded=0;whiteSpace=wrap;html=1;" parent="1" vertex="1">
          <mxGeometry x="780" y="470" width="120" height="90" as="geometry" />
        </mxCell>
        <mxCell id="3HYRBlNdvJFizkfq-V-y-20" value="NÃO" style="text;strokeColor=none;align=center;fillColor=none;html=1;verticalAlign=middle;whiteSpace=wrap;rounded=0;" parent="1" vertex="1">
          <mxGeometry x="710" y="440" width="60" height="30" as="geometry" />
        </mxCell>
        <mxCell id="3HYRBlNdvJFizkfq-V-y-21" value="" style="shape=flexArrow;endArrow=classic;html=1;rounded=0;exitX=0;exitY=0.5;exitDx=0;exitDy=0;" parent="1" source="3HYRBlNdvJFizkfq-V-y-15" target="3HYRBlNdvJFizkfq-V-y-22" edge="1">
          <mxGeometry width="50" height="50" relative="1" as="geometry">
            <mxPoint x="40" y="775" as="sourcePoint" />
            <mxPoint x="-10" y="670" as="targetPoint" />
          </mxGeometry>
        </mxCell>
        <mxCell id="3HYRBlNdvJFizkfq-V-y-22" value="ALERTA DE CADASTRO REALIZADO E DIRECIONA PARA TELA DE LISTAGEM DE ATIVOS" style="rounded=0;whiteSpace=wrap;html=1;" parent="1" vertex="1">
          <mxGeometry x="-160" y="640" width="150" height="60" as="geometry" />
        </mxCell>
        <mxCell id="FMjs1E__UIAP42rGmkns-1" value="" style="endArrow=classic;html=1;rounded=0;exitX=0.5;exitY=1;exitDx=0;exitDy=0;entryX=0.5;entryY=0;entryDx=0;entryDy=0;" edge="1" parent="1" source="3HYRBlNdvJFizkfq-V-y-1" target="FMjs1E__UIAP42rGmkns-2">
          <mxGeometry width="50" height="50" relative="1" as="geometry">
            <mxPoint x="190" y="220" as="sourcePoint" />
            <mxPoint x="230" y="293" as="targetPoint" />
          </mxGeometry>
        </mxCell>
        <mxCell id="FMjs1E__UIAP42rGmkns-2" value="quant. do ativo menor que qntd. min.?" style="rhombus;whiteSpace=wrap;html=1;" vertex="1" parent="1">
          <mxGeometry x="26" y="165" width="130" height="140" as="geometry" />
        </mxCell>
        <mxCell id="FMjs1E__UIAP42rGmkns-3" value="" style="shape=flexArrow;endArrow=classic;html=1;rounded=0;exitX=0.5;exitY=1;exitDx=0;exitDy=0;" edge="1" parent="1" source="FMjs1E__UIAP42rGmkns-2">
          <mxGeometry width="50" height="50" relative="1" as="geometry">
            <mxPoint x="96" y="314.5" as="sourcePoint" />
            <mxPoint x="91" y="360" as="targetPoint" />
          </mxGeometry>
        </mxCell>
        <mxCell id="FMjs1E__UIAP42rGmkns-4" value="SIM" style="text;strokeColor=none;align=center;fillColor=none;html=1;verticalAlign=middle;whiteSpace=wrap;rounded=0;" vertex="1" parent="1">
          <mxGeometry x="-24" y="200" width="60" height="30" as="geometry" />
        </mxCell>
        <mxCell id="FMjs1E__UIAP42rGmkns-5" value="NÃO" style="text;strokeColor=none;align=center;fillColor=none;html=1;verticalAlign=middle;whiteSpace=wrap;rounded=0;" vertex="1" parent="1">
          <mxGeometry x="41" y="310" width="60" height="30" as="geometry" />
        </mxCell>
        <mxCell id="FMjs1E__UIAP42rGmkns-6" value="" style="shape=flexArrow;endArrow=classic;html=1;rounded=0;exitX=0;exitY=0.5;exitDx=0;exitDy=0;" edge="1" parent="1" source="FMjs1E__UIAP42rGmkns-2">
          <mxGeometry width="50" height="50" relative="1" as="geometry">
            <mxPoint x="-24" y="193" as="sourcePoint" />
            <mxPoint x="-34" y="235" as="targetPoint" />
          </mxGeometry>
        </mxCell>
        <mxCell id="FMjs1E__UIAP42rGmkns-8" value="Alerta de ativo em falta" style="rounded=0;whiteSpace=wrap;html=1;" vertex="1" parent="1">
          <mxGeometry x="-184" y="205" width="150" height="60" as="geometry" />
        </mxCell>
        <mxCell id="FMjs1E__UIAP42rGmkns-9" value="" style="shape=flexArrow;endArrow=classic;html=1;rounded=0;exitX=0;exitY=0.5;exitDx=0;exitDy=0;" edge="1" parent="1">
          <mxGeometry width="50" height="50" relative="1" as="geometry">
            <mxPoint x="-184" y="234.70999999999998" as="sourcePoint" />
            <mxPoint x="-244" y="234.70999999999998" as="targetPoint" />
          </mxGeometry>
        </mxCell>
        <mxCell id="FMjs1E__UIAP42rGmkns-10" value="Página de repositório com a API do mercado livre mostra o item que esta em falta" style="rounded=0;whiteSpace=wrap;html=1;" vertex="1" parent="1">
          <mxGeometry x="-394" y="205" width="150" height="60" as="geometry" />
        </mxCell>
        <mxCell id="FMjs1E__UIAP42rGmkns-11" value="Nada acontece" style="rounded=0;whiteSpace=wrap;html=1;" vertex="1" parent="1">
          <mxGeometry x="16" y="360" width="150" height="60" as="geometry" />
        </mxCell>
        <mxCell id="FMjs1E__UIAP42rGmkns-12" value="" style="endArrow=classic;html=1;rounded=0;exitX=0;exitY=0.5;exitDx=0;exitDy=0;entryX=0;entryY=0.5;entryDx=0;entryDy=0;" edge="1" parent="1" source="A4JTVdD2mBBCTn9CY4UU-2" target="FMjs1E__UIAP42rGmkns-14">
          <mxGeometry width="50" height="50" relative="1" as="geometry">
            <mxPoint x="300" y="305" as="sourcePoint" />
            <mxPoint x="420.5999999999999" y="399.7399999999999" as="targetPoint" />
            <Array as="points">
              <mxPoint x="320" y="263" />
              <mxPoint x="320" y="395" />
            </Array>
          </mxGeometry>
        </mxCell>
        <mxCell id="FMjs1E__UIAP42rGmkns-14" value="JÁ EXISTE PASTA PARA FOTO DOS ATIVOS?" style="rhombus;whiteSpace=wrap;html=1;" vertex="1" parent="1">
          <mxGeometry x="440" y="330" width="130" height="130" as="geometry" />
        </mxCell>
        <mxCell id="FMjs1E__UIAP42rGmkns-15" value="" style="shape=flexArrow;endArrow=classic;html=1;rounded=0;exitX=0;exitY=1;exitDx=0;exitDy=0;entryX=1;entryY=0;entryDx=0;entryDy=0;" edge="1" parent="1" source="FMjs1E__UIAP42rGmkns-14" target="FMjs1E__UIAP42rGmkns-20">
          <mxGeometry width="50" height="50" relative="1" as="geometry">
            <mxPoint x="330" y="470" as="sourcePoint" />
            <mxPoint x="390" y="500" as="targetPoint" />
          </mxGeometry>
        </mxCell>
        <mxCell id="FMjs1E__UIAP42rGmkns-16" value="" style="shape=flexArrow;endArrow=classic;html=1;rounded=0;exitX=0.714;exitY=0.784;exitDx=0;exitDy=0;exitPerimeter=0;" edge="1" parent="1" source="FMjs1E__UIAP42rGmkns-14">
          <mxGeometry width="50" height="50" relative="1" as="geometry">
            <mxPoint x="330" y="470" as="sourcePoint" />
            <mxPoint x="600" y="490" as="targetPoint" />
          </mxGeometry>
        </mxCell>
        <mxCell id="FMjs1E__UIAP42rGmkns-17" value="CRIA PASTA PARA ARMAZENAR AS FOTOS" style="rounded=0;whiteSpace=wrap;html=1;" vertex="1" parent="1">
          <mxGeometry x="600" y="490" width="120" height="90" as="geometry" />
        </mxCell>
        <mxCell id="FMjs1E__UIAP42rGmkns-18" value="NÃO" style="text;strokeColor=none;align=center;fillColor=none;html=1;verticalAlign=middle;whiteSpace=wrap;rounded=0;" vertex="1" parent="1">
          <mxGeometry x="550" y="430" width="60" height="30" as="geometry" />
        </mxCell>
        <mxCell id="FMjs1E__UIAP42rGmkns-19" value="SIM" style="text;strokeColor=none;align=center;fillColor=none;html=1;verticalAlign=middle;whiteSpace=wrap;rounded=0;" vertex="1" parent="1">
          <mxGeometry x="400" y="430" width="60" height="30" as="geometry" />
        </mxCell>
        <mxCell id="FMjs1E__UIAP42rGmkns-20" value="CRIA UMA URL PARA AS IMAGENS DE ACORDO COM A DATA DO CADASTRO" style="rounded=0;whiteSpace=wrap;html=1;" vertex="1" parent="1">
          <mxGeometry x="260" y="500" width="130" height="70" as="geometry" />
        </mxCell>
        <mxCell id="FMjs1E__UIAP42rGmkns-21" value="" style="shape=flexArrow;endArrow=classic;html=1;rounded=0;entryX=1;entryY=0.5;entryDx=0;entryDy=0;exitX=0.002;exitY=0.514;exitDx=0;exitDy=0;exitPerimeter=0;" edge="1" parent="1" source="FMjs1E__UIAP42rGmkns-17" target="FMjs1E__UIAP42rGmkns-20">
          <mxGeometry width="50" height="50" relative="1" as="geometry">
            <mxPoint x="580" y="535" as="sourcePoint" />
            <mxPoint x="570" y="585" as="targetPoint" />
          </mxGeometry>
        </mxCell>
        <mxCell id="FMjs1E__UIAP42rGmkns-23" value="" style="shape=flexArrow;endArrow=classic;html=1;rounded=0;exitX=0.398;exitY=0.987;exitDx=0;exitDy=0;exitPerimeter=0;" edge="1" parent="1" source="FMjs1E__UIAP42rGmkns-20">
          <mxGeometry width="50" height="50" relative="1" as="geometry">
            <mxPoint x="310" y="620" as="sourcePoint" />
            <mxPoint x="312" y="640" as="targetPoint" />
          </mxGeometry>
        </mxCell>
        <mxCell id="FMjs1E__UIAP42rGmkns-24" value="ARMAZENA AS FOTOS NA PASTA&lt;div&gt;E SALVA A URL NO BANCO DE DADOS&lt;/div&gt;" style="rounded=0;whiteSpace=wrap;html=1;" vertex="1" parent="1">
          <mxGeometry x="250" y="640" width="120" height="60" as="geometry" />
        </mxCell>
        <mxCell id="FMjs1E__UIAP42rGmkns-25" value="" style="shape=flexArrow;endArrow=classic;html=1;rounded=0;exitX=0.002;exitY=0.632;exitDx=0;exitDy=0;exitPerimeter=0;entryX=0.979;entryY=0.626;entryDx=0;entryDy=0;entryPerimeter=0;" edge="1" parent="1" source="FMjs1E__UIAP42rGmkns-24" target="3HYRBlNdvJFizkfq-V-y-15">
          <mxGeometry width="50" height="50" relative="1" as="geometry">
            <mxPoint x="90" y="660" as="sourcePoint" />
            <mxPoint x="510" y="675" as="targetPoint" />
          </mxGeometry>
        </mxCell>
      </root>
    </mxGraphModel>
  </diagram>
</mxfile>
